<svg xmlns="http://www.w3.org/2000/svg" xmlns:xlink="http://www.w3.org/1999/xlink" width="500" zoomAndPan="magnify" viewBox="0 0 375 374.999991" height="500" preserveAspectRatio="xMidYMid meet" version="1.0"><defs><g/><clipPath id="6fc25f6b77"><path d="M 170 84.785156 L 205 84.785156 L 205 119 L 170 119 Z M 170 84.785156 " clip-rule="nonzero"/></clipPath><clipPath id="6fca0c80f9"><path d="M 156 150 L 187 150 L 187 199.796875 L 156 199.796875 Z M 156 150 " clip-rule="nonzero"/></clipPath><clipPath id="be6b765616"><path d="M 156 158 L 187 158 L 187 199.796875 L 156 199.796875 Z M 156 158 " clip-rule="nonzero"/></clipPath><clipPath id="21a9de13ea"><path d="M 188 150 L 219 150 L 219 199.796875 L 188 199.796875 Z M 188 150 " clip-rule="nonzero"/></clipPath><clipPath id="9236307572"><path d="M 188 158 L 219 158 L 219 199.796875 L 188 199.796875 Z M 188 158 " clip-rule="nonzero"/></clipPath></defs><rect x="-37.5" width="450" fill="#ffffff" y="-37.499999" height="449.999989" fill-opacity="1"/><rect x="-37.5" width="450" fill="#ffffff" y="-37.499999" height="449.999989" fill-opacity="1"/><path fill="#51ade5" d="M 176.644531 214.492188 C 146.636719 241.820312 109.363281 219.847656 120.3125 199.148438 C 127.621094 185.328125 146.503906 183.707031 146.503906 183.707031 C 146.503906 183.707031 128.9375 174.5625 114.628906 183.179688 C 112.019531 184.753906 109.632812 187.214844 107.726562 190.25 C 107.730469 187.125 106.871094 183.960938 105.046875 181.136719 C 100.023438 173.34375 89.632812 171.101562 81.839844 176.128906 C 74.050781 181.152344 71.808594 191.542969 76.832031 199.335938 C 81.855469 207.125 92.246094 209.371094 100.039062 204.34375 C 101.421875 203.453125 102.625 202.390625 103.648438 201.203125 C 101.566406 214.28125 108.019531 230.195312 132.996094 237.09375 C 173.121094 248.171875 195.140625 196.457031 220.691406 195.574219 C 220.691406 195.574219 205.355469 188.347656 176.644531 214.492188 " fill-opacity="1" fill-rule="nonzero"/><path fill="#ed127c" d="M 293.132812 175.5625 C 285.339844 170.539062 274.949219 172.78125 269.925781 180.574219 C 267.992188 183.570312 267.136719 186.953125 267.257812 190.265625 C 265.351562 187.222656 262.957031 184.753906 260.34375 183.179688 C 246.035156 174.5625 228.472656 183.707031 228.472656 183.707031 C 228.472656 183.707031 247.351562 185.328125 254.660156 199.148438 C 265.609375 219.847656 228.335938 241.820312 198.328125 214.492188 C 169.621094 188.347656 154.28125 195.574219 154.28125 195.574219 C 179.832031 196.457031 201.851562 248.171875 241.976562 237.09375 C 267.402344 230.070312 273.632812 213.707031 271.203125 200.5 C 272.25 201.742188 273.496094 202.851562 274.933594 203.78125 C 282.726562 208.804688 293.117188 206.5625 298.140625 198.769531 C 303.167969 190.980469 300.925781 180.589844 293.132812 175.5625 " fill-opacity="1" fill-rule="nonzero"/><path fill="#80cc28" d="M 187.488281 136.0625 C 211.5 136.0625 231.238281 153.503906 233.554688 175.828125 C 233.703125 174.378906 233.78125 172.914062 233.78125 171.425781 C 233.78125 147.035156 213.054688 127.261719 187.488281 127.261719 C 161.917969 127.261719 141.191406 147.035156 141.191406 171.425781 C 141.191406 172.914062 141.269531 174.378906 141.421875 175.828125 C 143.734375 153.503906 163.476562 136.0625 187.488281 136.0625 " fill-opacity="1" fill-rule="nonzero"/><g clip-path="url(#6fc25f6b77)"><path fill="#80cc28" d="M 204.191406 101.535156 C 204.191406 110.761719 196.714844 118.242188 187.488281 118.242188 C 178.261719 118.242188 170.78125 110.761719 170.78125 101.535156 C 170.78125 92.308594 178.261719 84.832031 187.488281 84.832031 C 196.714844 84.832031 204.191406 92.308594 204.191406 101.535156 " fill-opacity="1" fill-rule="nonzero"/></g><g clip-path="url(#6fca0c80f9)"><path fill="#80cc28" d="M 186.917969 168.003906 L 176.488281 157.570312 C 172.21875 153.300781 165.5 152.949219 160.820312 156.507812 C 161.144531 156.082031 161.496094 155.671875 161.886719 155.28125 C 166.542969 150.628906 174.117188 150.628906 178.773438 155.28125 L 186.917969 163.429688 L 186.917969 161.082031 L 179.945312 154.109375 C 174.636719 148.800781 166.023438 148.800781 160.710938 154.109375 C 155.402344 159.421875 155.402344 168.03125 160.710938 173.34375 L 186.917969 199.550781 L 186.917969 168.003906 " fill-opacity="1" fill-rule="nonzero"/></g><g clip-path="url(#be6b765616)"><path fill="#4ca2d7" d="M 186.917969 168.003906 L 186.917969 199.550781 L 160.710938 173.34375 C 158.058594 170.6875 156.730469 167.207031 156.730469 163.726562 C 156.730469 162.902344 156.804688 162.082031 156.953125 161.273438 C 164.003906 157.691406 174.464844 156.527344 186.917969 168.003906 " fill-opacity="1" fill-rule="nonzero"/></g><path fill="#ffffff" d="M 165.636719 173.34375 L 163.996094 171.703125 C 163.542969 171.25 162.808594 171.25 162.355469 171.703125 C 161.902344 172.15625 161.902344 172.890625 162.355469 173.34375 L 163.996094 174.984375 C 164.449219 175.4375 165.183594 175.4375 165.636719 174.984375 C 166.09375 174.53125 166.09375 173.796875 165.636719 173.34375 " fill-opacity="1" fill-rule="nonzero"/><path fill="#ffffff" d="M 167.28125 178.269531 L 185.757812 196.746094 L 185.757812 193.464844 L 168.921875 176.628906 C 168.46875 176.175781 167.734375 176.175781 167.28125 176.628906 C 166.828125 177.082031 166.828125 177.816406 167.28125 178.269531 " fill-opacity="1" fill-rule="nonzero"/><g clip-path="url(#21a9de13ea)"><path fill="#80cc28" d="M 188.078125 168.003906 L 198.507812 157.570312 C 202.777344 153.300781 209.496094 152.949219 214.175781 156.507812 C 213.851562 156.082031 213.496094 155.671875 213.109375 155.285156 C 208.453125 150.628906 200.878906 150.628906 196.222656 155.285156 L 188.078125 163.429688 L 188.078125 161.085938 L 195.050781 154.109375 C 200.359375 148.800781 208.972656 148.800781 214.28125 154.109375 C 219.59375 159.421875 219.59375 168.035156 214.28125 173.34375 L 188.078125 199.550781 L 188.078125 168.003906 " fill-opacity="1" fill-rule="nonzero"/></g><g clip-path="url(#9236307572)"><path fill="#df1173" d="M 188.074219 168.003906 L 188.074219 199.550781 L 214.28125 173.34375 C 216.9375 170.6875 218.265625 167.207031 218.265625 163.726562 C 218.265625 162.90625 218.191406 162.082031 218.042969 161.273438 C 210.992188 157.691406 200.53125 156.527344 188.074219 168.003906 " fill-opacity="1" fill-rule="nonzero"/></g><path fill="#ffffff" d="M 209.355469 173.34375 L 211 171.703125 C 211.453125 171.25 212.1875 171.25 212.640625 171.703125 C 213.09375 172.15625 213.09375 172.890625 212.640625 173.34375 L 211 174.984375 C 210.546875 175.4375 209.8125 175.4375 209.355469 174.984375 C 208.902344 174.53125 208.902344 173.796875 209.355469 173.34375 " fill-opacity="1" fill-rule="nonzero"/><path fill="#ffffff" d="M 207.714844 178.269531 L 189.238281 196.746094 L 189.238281 193.464844 L 206.074219 176.628906 C 206.527344 176.175781 207.261719 176.175781 207.714844 176.628906 C 208.167969 177.082031 208.167969 177.816406 207.714844 178.269531 " fill-opacity="1" fill-rule="nonzero"/><g fill="#3b98d1" fill-opacity="1"><g transform="translate(114.08516, 272.429037)"><g><path d="M 4.75 -20.28125 C 7.15625 -22.5625 10.125 -23.703125 13.65625 -23.703125 C 17.1875 -23.703125 20.15625 -22.5625 22.5625 -20.28125 C 24.96875 -18 26.171875 -15.171875 26.171875 -11.796875 C 26.171875 -8.429688 24.96875 -5.59375 22.5625 -3.28125 C 20.15625 -0.976562 17.1875 0.171875 13.65625 0.171875 C 10.125 0.171875 7.15625 -0.976562 4.75 -3.28125 C 2.34375 -5.59375 1.140625 -8.429688 1.140625 -11.796875 C 1.140625 -15.171875 2.34375 -18 4.75 -20.28125 Z M 13.6875 -20.125 C 11.351562 -20.125 9.351562 -19.320312 7.6875 -17.71875 C 6.019531 -16.113281 5.1875 -14.140625 5.1875 -11.796875 C 5.1875 -9.460938 6.023438 -7.476562 7.703125 -5.84375 C 9.378906 -4.21875 11.375 -3.40625 13.6875 -3.40625 C 16 -3.40625 17.972656 -4.21875 19.609375 -5.84375 C 21.253906 -7.476562 22.078125 -9.460938 22.078125 -11.796875 C 22.078125 -14.140625 21.253906 -16.113281 19.609375 -17.71875 C 17.972656 -19.320312 16 -20.125 13.6875 -20.125 Z M 13.6875 -20.125 "/></g></g></g><g fill="#3b98d1" fill-opacity="1"><g transform="translate(146.441791, 272.429037)"><g><path d="M 18.078125 0 L 13.75 -7.140625 C 13.53125 -7.117188 13.171875 -7.109375 12.671875 -7.109375 L 7.078125 -7.109375 L 7.078125 0 L 3.109375 0 L 3.109375 -23.609375 L 12.671875 -23.609375 C 15.691406 -23.609375 18.03125 -22.90625 19.6875 -21.5 C 21.351562 -20.09375 22.1875 -18.109375 22.1875 -15.546875 C 22.1875 -13.660156 21.765625 -12.0625 20.921875 -10.75 C 20.078125 -9.445312 18.867188 -8.492188 17.296875 -7.890625 L 22.59375 0 Z M 7.078125 -10.6875 L 12.671875 -10.6875 C 16.492188 -10.6875 18.40625 -12.269531 18.40625 -15.4375 C 18.40625 -18.5 16.492188 -20.03125 12.671875 -20.03125 L 7.078125 -20.03125 Z M 7.078125 -10.6875 "/></g></g></g><g fill="#3b98d1" fill-opacity="1"><g transform="translate(175.866293, 272.429037)"><g><path d="M 4.75 -20.28125 C 7.15625 -22.5625 10.125 -23.703125 13.65625 -23.703125 C 17.1875 -23.703125 20.15625 -22.5625 22.5625 -20.28125 C 24.96875 -18 26.171875 -15.171875 26.171875 -11.796875 C 26.171875 -8.429688 24.96875 -5.59375 22.5625 -3.28125 C 20.15625 -0.976562 17.1875 0.171875 13.65625 0.171875 C 10.125 0.171875 7.15625 -0.976562 4.75 -3.28125 C 2.34375 -5.59375 1.140625 -8.429688 1.140625 -11.796875 C 1.140625 -15.171875 2.34375 -18 4.75 -20.28125 Z M 13.6875 -20.125 C 11.351562 -20.125 9.351562 -19.320312 7.6875 -17.71875 C 6.019531 -16.113281 5.1875 -14.140625 5.1875 -11.796875 C 5.1875 -9.460938 6.023438 -7.476562 7.703125 -5.84375 C 9.378906 -4.21875 11.375 -3.40625 13.6875 -3.40625 C 16 -3.40625 17.972656 -4.21875 19.609375 -5.84375 C 21.253906 -7.476562 22.078125 -9.460938 22.078125 -11.796875 C 22.078125 -14.140625 21.253906 -16.113281 19.609375 -17.71875 C 17.972656 -19.320312 16 -20.125 13.6875 -20.125 Z M 13.6875 -20.125 "/></g></g></g><g fill="#3b98d1" fill-opacity="1"><g transform="translate(208.222924, 272.429037)"><g><path d="M 10.859375 -23.765625 C 13.910156 -23.765625 16.664062 -22.957031 19.125 -21.34375 L 17.46875 -17.84375 C 15.0625 -19.300781 12.753906 -20.03125 10.546875 -20.03125 C 9.359375 -20.03125 8.421875 -19.816406 7.734375 -19.390625 C 7.046875 -18.960938 6.703125 -18.351562 6.703125 -17.5625 C 6.703125 -16.78125 7.015625 -16.113281 7.640625 -15.5625 C 8.273438 -15.007812 9.066406 -14.601562 10.015625 -14.34375 C 10.960938 -14.082031 11.984375 -13.753906 13.078125 -13.359375 C 14.179688 -12.972656 15.203125 -12.5625 16.140625 -12.125 C 17.085938 -11.6875 17.867188 -11 18.484375 -10.0625 C 19.109375 -9.132812 19.421875 -8.003906 19.421875 -6.671875 C 19.421875 -4.609375 18.59375 -2.957031 16.9375 -1.71875 C 15.289062 -0.476562 13.148438 0.140625 10.515625 0.140625 C 8.722656 0.140625 6.984375 -0.195312 5.296875 -0.875 C 3.609375 -1.550781 2.132812 -2.460938 0.875 -3.609375 L 2.59375 -7.046875 C 3.789062 -5.941406 5.101562 -5.09375 6.53125 -4.5 C 7.957031 -3.90625 9.3125 -3.609375 10.59375 -3.609375 C 11.976562 -3.609375 13.054688 -3.859375 13.828125 -4.359375 C 14.609375 -4.867188 15 -5.570312 15 -6.46875 C 15 -7.28125 14.679688 -7.960938 14.046875 -8.515625 C 13.421875 -9.066406 12.632812 -9.46875 11.6875 -9.71875 C 10.75 -9.976562 9.726562 -10.296875 8.625 -10.671875 C 7.53125 -11.046875 6.507812 -11.4375 5.5625 -11.84375 C 4.613281 -12.257812 3.828125 -12.925781 3.203125 -13.84375 C 2.578125 -14.769531 2.265625 -15.890625 2.265625 -17.203125 C 2.265625 -19.203125 3.050781 -20.796875 4.625 -21.984375 C 6.195312 -23.171875 8.273438 -23.765625 10.859375 -23.765625 Z M 10.859375 -23.765625 "/></g></g></g><g fill="#3b98d1" fill-opacity="1"><g transform="translate(234.243454, 272.429037)"><g><path d="M 23.5625 0 L 19.59375 0 L 19.59375 -9.78125 L 7.078125 -9.78125 L 7.078125 0 L 3.109375 0 L 3.109375 -23.609375 L 7.078125 -23.609375 L 7.078125 -13.359375 L 19.59375 -13.359375 L 19.59375 -23.609375 L 23.5625 -23.609375 Z M 23.5625 0 "/></g></g></g><g fill="#ed127c" fill-opacity="1"><g transform="translate(72.900445, 283.644732)"><g><path d="M 1.109375 -4.765625 C 1.679688 -5.296875 2.378906 -5.5625 3.203125 -5.5625 C 4.035156 -5.5625 4.734375 -5.296875 5.296875 -4.765625 C 5.859375 -4.234375 6.140625 -3.566406 6.140625 -2.765625 C 6.140625 -1.972656 5.859375 -1.304688 5.296875 -0.765625 C 4.734375 -0.222656 4.035156 0.046875 3.203125 0.046875 C 2.378906 0.046875 1.679688 -0.222656 1.109375 -0.765625 C 0.546875 -1.304688 0.265625 -1.972656 0.265625 -2.765625 C 0.265625 -3.566406 0.546875 -4.234375 1.109375 -4.765625 Z M 3.21875 -4.734375 C 2.664062 -4.734375 2.191406 -4.539062 1.796875 -4.15625 C 1.410156 -3.78125 1.21875 -3.316406 1.21875 -2.765625 C 1.21875 -2.222656 1.414062 -1.757812 1.8125 -1.375 C 2.207031 -0.988281 2.675781 -0.796875 3.21875 -0.796875 C 3.757812 -0.796875 4.222656 -0.988281 4.609375 -1.375 C 4.992188 -1.757812 5.1875 -2.222656 5.1875 -2.765625 C 5.1875 -3.316406 4.992188 -3.78125 4.609375 -4.15625 C 4.222656 -4.539062 3.757812 -4.734375 3.21875 -4.734375 Z M 3.21875 -4.734375 "/></g></g></g><g fill="#ed127c" fill-opacity="1"><g transform="translate(80.015824, 283.644732)"><g><path d="M 4.25 0 L 3.234375 -1.671875 C 3.179688 -1.671875 3.097656 -1.671875 2.984375 -1.671875 L 1.65625 -1.671875 L 1.65625 0 L 0.734375 0 L 0.734375 -5.546875 L 2.984375 -5.546875 C 3.691406 -5.546875 4.238281 -5.378906 4.625 -5.046875 C 5.019531 -4.722656 5.21875 -4.257812 5.21875 -3.65625 C 5.21875 -3.207031 5.117188 -2.828125 4.921875 -2.515625 C 4.722656 -2.210938 4.4375 -1.992188 4.0625 -1.859375 L 5.3125 0 Z M 1.65625 -2.515625 L 2.984375 -2.515625 C 3.878906 -2.515625 4.328125 -2.882812 4.328125 -3.625 C 4.328125 -4.34375 3.878906 -4.703125 2.984375 -4.703125 L 1.65625 -4.703125 Z M 1.65625 -2.515625 "/></g></g></g><g fill="#ed127c" fill-opacity="1"><g transform="translate(86.441851, 283.644732)"><g><path d="M 4.515625 -2.71875 L 5.34375 -2.71875 L 5.34375 -0.6875 C 5.050781 -0.46875 4.710938 -0.289062 4.328125 -0.15625 C 3.941406 -0.0195312 3.5625 0.046875 3.1875 0.046875 C 2.363281 0.046875 1.671875 -0.222656 1.109375 -0.765625 C 0.546875 -1.304688 0.265625 -1.972656 0.265625 -2.765625 C 0.265625 -3.566406 0.550781 -4.234375 1.125 -4.765625 C 1.695312 -5.296875 2.398438 -5.5625 3.234375 -5.5625 C 3.628906 -5.5625 4.015625 -5.492188 4.390625 -5.359375 C 4.765625 -5.222656 5.09375 -5.035156 5.375 -4.796875 L 4.84375 -4.109375 C 4.382812 -4.523438 3.847656 -4.734375 3.234375 -4.734375 C 2.671875 -4.734375 2.191406 -4.539062 1.796875 -4.15625 C 1.410156 -3.78125 1.21875 -3.316406 1.21875 -2.765625 C 1.21875 -2.210938 1.414062 -1.742188 1.8125 -1.359375 C 2.207031 -0.984375 2.6875 -0.796875 3.25 -0.796875 C 3.675781 -0.796875 4.097656 -0.925781 4.515625 -1.1875 Z M 4.515625 -2.71875 "/></g></g></g><g fill="#ed127c" fill-opacity="1"><g transform="translate(93.073898, 283.644732)"><g><path d="M 4.3125 -1.25 L 1.515625 -1.25 L 0.984375 0 L 0.015625 0 L 2.453125 -5.546875 L 3.421875 -5.546875 L 5.84375 0 L 4.84375 0 Z M 3.953125 -2.078125 L 2.90625 -4.546875 L 1.859375 -2.078125 Z M 3.953125 -2.078125 "/></g></g></g><g fill="#ed127c" fill-opacity="1"><g transform="translate(99.618783, 283.644732)"><g><path d="M 5.53125 0 L 4.625 0 L 1.65625 -3.984375 L 1.65625 0 L 0.734375 0 L 0.734375 -5.546875 L 1.640625 -5.546875 L 4.625 -1.5625 L 4.625 -5.546875 L 5.53125 -5.546875 Z M 5.53125 0 "/></g></g></g><g fill="#ed127c" fill-opacity="1"><g transform="translate(106.591546, 283.644732)"><g><path d="M 1.65625 0 L 0.734375 0 L 0.734375 -5.546875 L 1.65625 -5.546875 Z M 1.65625 0 "/></g></g></g><g fill="#ed127c" fill-opacity="1"><g transform="translate(109.681742, 283.644732)"><g><path d="M 2.546875 -5.578125 C 3.265625 -5.578125 3.910156 -5.390625 4.484375 -5.015625 L 4.109375 -4.1875 C 3.535156 -4.53125 2.992188 -4.703125 2.484375 -4.703125 C 2.203125 -4.703125 1.976562 -4.648438 1.8125 -4.546875 C 1.65625 -4.453125 1.578125 -4.3125 1.578125 -4.125 C 1.578125 -3.9375 1.648438 -3.78125 1.796875 -3.65625 C 1.941406 -3.53125 2.125 -3.4375 2.34375 -3.375 C 2.570312 -3.3125 2.816406 -3.234375 3.078125 -3.140625 C 3.335938 -3.046875 3.578125 -2.945312 3.796875 -2.84375 C 4.015625 -2.738281 4.195312 -2.578125 4.34375 -2.359375 C 4.488281 -2.140625 4.5625 -1.875 4.5625 -1.5625 C 4.5625 -1.082031 4.367188 -0.695312 3.984375 -0.40625 C 3.597656 -0.113281 3.09375 0.03125 2.46875 0.03125 C 2.050781 0.03125 1.644531 -0.046875 1.25 -0.203125 C 0.851562 -0.359375 0.503906 -0.570312 0.203125 -0.84375 L 0.609375 -1.65625 C 0.890625 -1.394531 1.195312 -1.191406 1.53125 -1.046875 C 1.863281 -0.910156 2.179688 -0.84375 2.484375 -0.84375 C 2.816406 -0.84375 3.070312 -0.898438 3.25 -1.015625 C 3.4375 -1.140625 3.53125 -1.304688 3.53125 -1.515625 C 3.53125 -1.710938 3.453125 -1.875 3.296875 -2 C 3.148438 -2.125 2.96875 -2.21875 2.75 -2.28125 C 2.53125 -2.34375 2.289062 -2.414062 2.03125 -2.5 C 1.769531 -2.59375 1.523438 -2.6875 1.296875 -2.78125 C 1.078125 -2.882812 0.894531 -3.039062 0.75 -3.25 C 0.601562 -3.46875 0.53125 -3.734375 0.53125 -4.046875 C 0.53125 -4.515625 0.710938 -4.882812 1.078125 -5.15625 C 1.453125 -5.4375 1.941406 -5.578125 2.546875 -5.578125 Z M 2.546875 -5.578125 "/></g></g></g><g fill="#ed127c" fill-opacity="1"><g transform="translate(115.307487, 283.644732)"><g><path d="M 4.3125 -1.25 L 1.515625 -1.25 L 0.984375 0 L 0.015625 0 L 2.453125 -5.546875 L 3.421875 -5.546875 L 5.84375 0 L 4.84375 0 Z M 3.953125 -2.078125 L 2.90625 -4.546875 L 1.859375 -2.078125 Z M 3.953125 -2.078125 "/></g></g></g><g fill="#ed127c" fill-opacity="1"><g transform="translate(121.852373, 283.644732)"><g><path d="M 4.515625 -4.703125 L 2.75 -4.703125 L 2.75 0 L 1.828125 0 L 1.828125 -4.703125 L 0.078125 -4.703125 L 0.078125 -5.546875 L 4.515625 -5.546875 Z M 4.515625 -4.703125 "/></g></g></g><g fill="#ed127c" fill-opacity="1"><g transform="translate(127.137402, 283.644732)"><g><path d="M 1.65625 0 L 0.734375 0 L 0.734375 -5.546875 L 1.65625 -5.546875 Z M 1.65625 0 "/></g></g></g><g fill="#ed127c" fill-opacity="1"><g transform="translate(130.227597, 283.644732)"><g><path d="M 1.109375 -4.765625 C 1.679688 -5.296875 2.378906 -5.5625 3.203125 -5.5625 C 4.035156 -5.5625 4.734375 -5.296875 5.296875 -4.765625 C 5.859375 -4.234375 6.140625 -3.566406 6.140625 -2.765625 C 6.140625 -1.972656 5.859375 -1.304688 5.296875 -0.765625 C 4.734375 -0.222656 4.035156 0.046875 3.203125 0.046875 C 2.378906 0.046875 1.679688 -0.222656 1.109375 -0.765625 C 0.546875 -1.304688 0.265625 -1.972656 0.265625 -2.765625 C 0.265625 -3.566406 0.546875 -4.234375 1.109375 -4.765625 Z M 3.21875 -4.734375 C 2.664062 -4.734375 2.191406 -4.539062 1.796875 -4.15625 C 1.410156 -3.78125 1.21875 -3.316406 1.21875 -2.765625 C 1.21875 -2.222656 1.414062 -1.757812 1.8125 -1.375 C 2.207031 -0.988281 2.675781 -0.796875 3.21875 -0.796875 C 3.757812 -0.796875 4.222656 -0.988281 4.609375 -1.375 C 4.992188 -1.757812 5.1875 -2.222656 5.1875 -2.765625 C 5.1875 -3.316406 4.992188 -3.78125 4.609375 -4.15625 C 4.222656 -4.539062 3.757812 -4.734375 3.21875 -4.734375 Z M 3.21875 -4.734375 "/></g></g></g><g fill="#ed127c" fill-opacity="1"><g transform="translate(137.342976, 283.644732)"><g><path d="M 5.53125 0 L 4.625 0 L 1.65625 -3.984375 L 1.65625 0 L 0.734375 0 L 0.734375 -5.546875 L 1.640625 -5.546875 L 4.625 -1.5625 L 4.625 -5.546875 L 5.53125 -5.546875 Z M 5.53125 0 "/></g></g></g><g fill="#ed127c" fill-opacity="1"><g transform="translate(144.315739, 283.644732)"><g/></g></g><g fill="#ed127c" fill-opacity="1"><g transform="translate(147.057299, 283.644732)"><g><path d="M 8.28125 -0.84375 L 8.28125 0 L 3.203125 0 C 2.378906 0 1.679688 -0.265625 1.109375 -0.796875 C 0.546875 -1.328125 0.265625 -1.984375 0.265625 -2.765625 C 0.265625 -3.546875 0.546875 -4.203125 1.109375 -4.734375 C 1.679688 -5.273438 2.378906 -5.546875 3.203125 -5.546875 L 8.1875 -5.546875 L 8.1875 -4.703125 L 5.15625 -4.703125 L 5.15625 -3.203125 L 7.859375 -3.203125 L 7.859375 -2.375 L 5.15625 -2.375 L 5.15625 -0.84375 Z M 4.21875 -0.84375 L 4.21875 -4.703125 L 3.203125 -4.703125 C 2.648438 -4.703125 2.179688 -4.515625 1.796875 -4.140625 C 1.410156 -3.773438 1.21875 -3.316406 1.21875 -2.765625 C 1.21875 -2.210938 1.410156 -1.753906 1.796875 -1.390625 C 2.179688 -1.023438 2.648438 -0.84375 3.203125 -0.84375 Z M 4.21875 -0.84375 "/></g></g></g><g fill="#ed127c" fill-opacity="1"><g transform="translate(156.446754, 283.644732)"><g><path d="M 5.4375 -5.546875 L 5.4375 -2.296875 C 5.4375 -1.578125 5.222656 -1.003906 4.796875 -0.578125 C 4.367188 -0.160156 3.78125 0.046875 3.03125 0.046875 C 2.28125 0.046875 1.691406 -0.160156 1.265625 -0.578125 C 0.835938 -1.003906 0.625 -1.578125 0.625 -2.296875 L 0.625 -5.546875 L 1.546875 -5.546875 L 1.546875 -2.296875 C 1.546875 -1.828125 1.679688 -1.457031 1.953125 -1.1875 C 2.222656 -0.925781 2.585938 -0.796875 3.046875 -0.796875 C 3.492188 -0.796875 3.847656 -0.925781 4.109375 -1.1875 C 4.367188 -1.457031 4.5 -1.828125 4.5 -2.296875 L 4.5 -5.546875 Z M 5.4375 -5.546875 "/></g></g></g><g fill="#ed127c" fill-opacity="1"><g transform="translate(163.197649, 283.644732)"><g><path d="M 3.203125 0 L 2.234375 0 L 0.03125 -5.546875 L 1.03125 -5.546875 L 2.734375 -1.03125 L 4.46875 -5.546875 L 5.4375 -5.546875 Z M 3.203125 0 "/></g></g></g><g fill="#ed127c" fill-opacity="1"><g transform="translate(169.362202, 283.644732)"><g><path d="M 4.25 0 L 3.234375 -1.671875 C 3.179688 -1.671875 3.097656 -1.671875 2.984375 -1.671875 L 1.65625 -1.671875 L 1.65625 0 L 0.734375 0 L 0.734375 -5.546875 L 2.984375 -5.546875 C 3.691406 -5.546875 4.238281 -5.378906 4.625 -5.046875 C 5.019531 -4.722656 5.21875 -4.257812 5.21875 -3.65625 C 5.21875 -3.207031 5.117188 -2.828125 4.921875 -2.515625 C 4.722656 -2.210938 4.4375 -1.992188 4.0625 -1.859375 L 5.3125 0 Z M 1.65625 -2.515625 L 2.984375 -2.515625 C 3.878906 -2.515625 4.328125 -2.882812 4.328125 -3.625 C 4.328125 -4.34375 3.878906 -4.703125 2.984375 -4.703125 L 1.65625 -4.703125 Z M 1.65625 -2.515625 "/></g></g></g><g fill="#ed127c" fill-opacity="1"><g transform="translate(175.788229, 283.644732)"><g><path d="M 4.6875 -4.703125 L 1.65625 -4.703125 L 1.65625 -3.203125 L 4.375 -3.203125 L 4.375 -2.375 L 1.65625 -2.375 L 1.65625 -0.84375 L 4.78125 -0.84375 L 4.78125 0 L 0.734375 0 L 0.734375 -5.546875 L 4.6875 -5.546875 Z M 4.6875 -4.703125 "/></g></g></g><g fill="#ed127c" fill-opacity="1"><g transform="translate(181.683378, 283.644732)"><g/></g></g><g fill="#ed127c" fill-opacity="1"><g transform="translate(184.424938, 283.644732)"><g><path d="M 2.546875 -5.578125 C 3.265625 -5.578125 3.910156 -5.390625 4.484375 -5.015625 L 4.109375 -4.1875 C 3.535156 -4.53125 2.992188 -4.703125 2.484375 -4.703125 C 2.203125 -4.703125 1.976562 -4.648438 1.8125 -4.546875 C 1.65625 -4.453125 1.578125 -4.3125 1.578125 -4.125 C 1.578125 -3.9375 1.648438 -3.78125 1.796875 -3.65625 C 1.941406 -3.53125 2.125 -3.4375 2.34375 -3.375 C 2.570312 -3.3125 2.816406 -3.234375 3.078125 -3.140625 C 3.335938 -3.046875 3.578125 -2.945312 3.796875 -2.84375 C 4.015625 -2.738281 4.195312 -2.578125 4.34375 -2.359375 C 4.488281 -2.140625 4.5625 -1.875 4.5625 -1.5625 C 4.5625 -1.082031 4.367188 -0.695312 3.984375 -0.40625 C 3.597656 -0.113281 3.09375 0.03125 2.46875 0.03125 C 2.050781 0.03125 1.644531 -0.046875 1.25 -0.203125 C 0.851562 -0.359375 0.503906 -0.570312 0.203125 -0.84375 L 0.609375 -1.65625 C 0.890625 -1.394531 1.195312 -1.191406 1.53125 -1.046875 C 1.863281 -0.910156 2.179688 -0.84375 2.484375 -0.84375 C 2.816406 -0.84375 3.070312 -0.898438 3.25 -1.015625 C 3.4375 -1.140625 3.53125 -1.304688 3.53125 -1.515625 C 3.53125 -1.710938 3.453125 -1.875 3.296875 -2 C 3.148438 -2.125 2.96875 -2.21875 2.75 -2.28125 C 2.53125 -2.34375 2.289062 -2.414062 2.03125 -2.5 C 1.769531 -2.59375 1.523438 -2.6875 1.296875 -2.78125 C 1.078125 -2.882812 0.894531 -3.039062 0.75 -3.25 C 0.601562 -3.46875 0.53125 -3.734375 0.53125 -4.046875 C 0.53125 -4.515625 0.710938 -4.882812 1.078125 -5.15625 C 1.453125 -5.4375 1.941406 -5.578125 2.546875 -5.578125 Z M 2.546875 -5.578125 "/></g></g></g><g fill="#ed127c" fill-opacity="1"><g transform="translate(190.050684, 283.644732)"><g><path d="M 4.3125 -1.25 L 1.515625 -1.25 L 0.984375 0 L 0.015625 0 L 2.453125 -5.546875 L 3.421875 -5.546875 L 5.84375 0 L 4.84375 0 Z M 3.953125 -2.078125 L 2.90625 -4.546875 L 1.859375 -2.078125 Z M 3.953125 -2.078125 "/></g></g></g><g fill="#ed127c" fill-opacity="1"><g transform="translate(196.595569, 283.644732)"><g><path d="M 6.59375 0 L 5.734375 0 L 5.71875 -4.140625 L 3.96875 -0.578125 L 3.359375 -0.578125 L 1.609375 -4.140625 L 1.609375 0 L 0.734375 0 L 0.734375 -5.546875 L 1.84375 -5.546875 L 3.671875 -1.859375 L 5.484375 -5.546875 L 6.59375 -5.546875 Z M 6.59375 0 "/></g></g></g><g fill="#ed127c" fill-opacity="1"><g transform="translate(204.622168, 283.644732)"><g><path d="M 4.3125 -1.25 L 1.515625 -1.25 L 0.984375 0 L 0.015625 0 L 2.453125 -5.546875 L 3.421875 -5.546875 L 5.84375 0 L 4.84375 0 Z M 3.953125 -2.078125 L 2.90625 -4.546875 L 1.859375 -2.078125 Z M 3.953125 -2.078125 "/></g></g></g><g fill="#ed127c" fill-opacity="1"><g transform="translate(211.167053, 283.644732)"><g><path d="M 4.25 0 L 3.234375 -1.671875 C 3.179688 -1.671875 3.097656 -1.671875 2.984375 -1.671875 L 1.65625 -1.671875 L 1.65625 0 L 0.734375 0 L 0.734375 -5.546875 L 2.984375 -5.546875 C 3.691406 -5.546875 4.238281 -5.378906 4.625 -5.046875 C 5.019531 -4.722656 5.21875 -4.257812 5.21875 -3.65625 C 5.21875 -3.207031 5.117188 -2.828125 4.921875 -2.515625 C 4.722656 -2.210938 4.4375 -1.992188 4.0625 -1.859375 L 5.3125 0 Z M 1.65625 -2.515625 L 2.984375 -2.515625 C 3.878906 -2.515625 4.328125 -2.882812 4.328125 -3.625 C 4.328125 -4.34375 3.878906 -4.703125 2.984375 -4.703125 L 1.65625 -4.703125 Z M 1.65625 -2.515625 "/></g></g></g><g fill="#ed127c" fill-opacity="1"><g transform="translate(217.59308, 283.644732)"><g><path d="M 1.65625 0 L 0.734375 0 L 0.734375 -5.546875 L 1.65625 -5.546875 Z M 1.65625 0 "/></g></g></g><g fill="#ed127c" fill-opacity="1"><g transform="translate(220.683276, 283.644732)"><g><path d="M 4.515625 -4.703125 L 2.75 -4.703125 L 2.75 0 L 1.828125 0 L 1.828125 -4.703125 L 0.078125 -4.703125 L 0.078125 -5.546875 L 4.515625 -5.546875 Z M 4.515625 -4.703125 "/></g></g></g><g fill="#ed127c" fill-opacity="1"><g transform="translate(225.968305, 283.644732)"><g><path d="M 4.3125 -1.25 L 1.515625 -1.25 L 0.984375 0 L 0.015625 0 L 2.453125 -5.546875 L 3.421875 -5.546875 L 5.84375 0 L 4.84375 0 Z M 3.953125 -2.078125 L 2.90625 -4.546875 L 1.859375 -2.078125 Z M 3.953125 -2.078125 "/></g></g></g><g fill="#ed127c" fill-opacity="1"><g transform="translate(232.51319, 283.644732)"><g><path d="M 1.65625 0 L 0.734375 0 L 0.734375 -5.546875 L 1.65625 -5.546875 Z M 1.65625 0 "/></g></g></g><g fill="#ed127c" fill-opacity="1"><g transform="translate(235.603386, 283.644732)"><g><path d="M 5.53125 0 L 4.625 0 L 1.65625 -3.984375 L 1.65625 0 L 0.734375 0 L 0.734375 -5.546875 L 1.640625 -5.546875 L 4.625 -1.5625 L 4.625 -5.546875 L 5.53125 -5.546875 Z M 5.53125 0 "/></g></g></g><g fill="#ed127c" fill-opacity="1"><g transform="translate(242.576149, 283.644732)"><g><path d="M 4.6875 -4.703125 L 1.65625 -4.703125 L 1.65625 -3.203125 L 4.375 -3.203125 L 4.375 -2.375 L 1.65625 -2.375 L 1.65625 -0.84375 L 4.78125 -0.84375 L 4.78125 0 L 0.734375 0 L 0.734375 -5.546875 L 4.6875 -5.546875 Z M 4.6875 -4.703125 "/></g></g></g><g fill="#ed127c" fill-opacity="1"><g transform="translate(248.471308, 283.644732)"><g/></g></g><g fill="#ed127c" fill-opacity="1"><g transform="translate(251.212878, 283.644732)"><g><path d="M 0.734375 -5.546875 L 3 -5.546875 C 3.832031 -5.546875 4.519531 -5.285156 5.0625 -4.765625 C 5.601562 -4.242188 5.875 -3.578125 5.875 -2.765625 C 5.875 -1.960938 5.597656 -1.300781 5.046875 -0.78125 C 4.503906 -0.257812 3.816406 0 2.984375 0 L 0.734375 0 Z M 1.65625 -4.703125 L 1.65625 -0.84375 L 3.03125 -0.84375 C 3.570312 -0.84375 4.019531 -1.019531 4.375 -1.375 C 4.738281 -1.738281 4.921875 -2.203125 4.921875 -2.765625 C 4.921875 -3.328125 4.734375 -3.789062 4.359375 -4.15625 C 3.992188 -4.519531 3.535156 -4.703125 2.984375 -4.703125 Z M 1.65625 -4.703125 "/></g></g></g><g fill="#ed127c" fill-opacity="1"><g transform="translate(258.050945, 283.644732)"><g><path d="M 4.6875 -4.703125 L 1.65625 -4.703125 L 1.65625 -3.203125 L 4.375 -3.203125 L 4.375 -2.375 L 1.65625 -2.375 L 1.65625 -0.84375 L 4.78125 -0.84375 L 4.78125 0 L 0.734375 0 L 0.734375 -5.546875 L 4.6875 -5.546875 Z M 4.6875 -4.703125 "/></g></g></g><g fill="#ed127c" fill-opacity="1"><g transform="translate(263.946084, 283.644732)"><g/></g></g><g fill="#ed127c" fill-opacity="1"><g transform="translate(266.687654, 283.644732)"><g><path d="M 5.53125 0 L 4.609375 0 L 4.609375 -2.296875 L 1.65625 -2.296875 L 1.65625 0 L 0.734375 0 L 0.734375 -5.546875 L 1.65625 -5.546875 L 1.65625 -3.140625 L 4.609375 -3.140625 L 4.609375 -5.546875 L 5.53125 -5.546875 Z M 5.53125 0 "/></g></g></g><g fill="#ed127c" fill-opacity="1"><g transform="translate(273.652488, 283.644732)"><g><path d="M 1.65625 0 L 0.734375 0 L 0.734375 -5.546875 L 1.65625 -5.546875 Z M 1.65625 0 "/></g></g></g><g fill="#ed127c" fill-opacity="1"><g transform="translate(276.742683, 283.644732)"><g><path d="M 5.53125 0 L 4.625 0 L 1.65625 -3.984375 L 1.65625 0 L 0.734375 0 L 0.734375 -5.546875 L 1.640625 -5.546875 L 4.625 -1.5625 L 4.625 -5.546875 L 5.53125 -5.546875 Z M 5.53125 0 "/></g></g></g><g fill="#ed127c" fill-opacity="1"><g transform="translate(283.715436, 283.644732)"><g><path d="M 5.53125 0 L 4.609375 0 L 4.609375 -2.296875 L 1.65625 -2.296875 L 1.65625 0 L 0.734375 0 L 0.734375 -5.546875 L 1.65625 -5.546875 L 1.65625 -3.140625 L 4.609375 -3.140625 L 4.609375 -5.546875 L 5.53125 -5.546875 Z M 5.53125 0 "/></g></g></g><g fill="#ed127c" fill-opacity="1"><g transform="translate(290.68027, 283.644732)"><g><path d="M 3.1875 -5.5625 C 3.570312 -5.5625 3.953125 -5.488281 4.328125 -5.34375 C 4.703125 -5.195312 5.023438 -4.988281 5.296875 -4.71875 L 4.75 -4.03125 C 4.539062 -4.25 4.300781 -4.421875 4.03125 -4.546875 C 3.757812 -4.671875 3.484375 -4.734375 3.203125 -4.734375 C 2.648438 -4.734375 2.179688 -4.546875 1.796875 -4.171875 C 1.410156 -3.796875 1.21875 -3.332031 1.21875 -2.78125 C 1.21875 -2.238281 1.410156 -1.773438 1.796875 -1.390625 C 2.179688 -1.015625 2.648438 -0.828125 3.203125 -0.828125 C 3.773438 -0.828125 4.289062 -1.046875 4.75 -1.484375 L 5.296875 -0.875 C 5.015625 -0.59375 4.679688 -0.367188 4.296875 -0.203125 C 3.921875 -0.0351562 3.539062 0.046875 3.15625 0.046875 C 2.34375 0.046875 1.65625 -0.222656 1.09375 -0.765625 C 0.539062 -1.304688 0.265625 -1.976562 0.265625 -2.78125 C 0.265625 -3.570312 0.546875 -4.234375 1.109375 -4.765625 C 1.671875 -5.296875 2.363281 -5.5625 3.1875 -5.5625 Z M 3.1875 -5.5625 "/></g></g></g><g fill="#ed127c" fill-opacity="1"><g transform="translate(296.900297, 283.644732)"><g><path d="M 4.6875 -4.703125 L 1.65625 -4.703125 L 1.65625 -3.203125 L 4.375 -3.203125 L 4.375 -2.375 L 1.65625 -2.375 L 1.65625 -0.84375 L 4.78125 -0.84375 L 4.78125 0 L 0.734375 0 L 0.734375 -5.546875 L 4.6875 -5.546875 Z M 4.6875 -4.703125 "/></g></g></g><g fill="#ed127c" fill-opacity="1"><g transform="translate(302.796568, 283.644732)"><g/></g></g></svg>